
<svg width="400" height="400" viewBox="0 0 400 400" xmlns="http://www.w3.org/2000/svg">
  <rect width="100%" height="100%" fill="transparent" />

  <!-- Chat Bubble Logo -->
  <g stroke="#5ee9ed" stroke-width="5" fill="none">
    <path d="M100 100 
             C80 100, 70 120, 70 140 
             C70 180, 100 190, 120 190 
             L120 210 
             L150 190 
             C170 190, 210 180, 210 140 
             C210 120, 190 100, 170 100 
             Z"/>

    <circle cx="110" cy="140" r="5" fill="#5ee9ed"/>
    <circle cx="130" cy="140" r="5" fill="#5ee9ed"/>
    <circle cx="150" cy="140" r="5" fill="#5ee9ed"/>

    <path d="M180 120 
             H270 
             Q280 120, 280 130 
             V180 
             Q280 190, 270 190 
             H220 
             L200 210 
             V190 
             H180 
             Q170 190, 170 180 
             V130 
             Q170 120, 180 120 
             Z"/>
  </g>

  <!-- ChitChat Text -->
  <text x="200" y="250" font-family="Arial, sans-serif" font-size="28" text-anchor="middle" fill="white">
    ChitChat
  </text>
</svg>
